<?xml version="1.0" encoding="UTF-8" standalone="no"?>
<!-- Created with Inkscape (http://www.inkscape.org/) -->
<svg
   xmlns:dc="http://purl.org/dc/elements/1.1/"
   xmlns:cc="http://creativecommons.org/ns#"
   xmlns:rdf="http://www.w3.org/1999/02/22-rdf-syntax-ns#"
   xmlns:svg="http://www.w3.org/2000/svg"
   xmlns="http://www.w3.org/2000/svg"
   xmlns:xlink="http://www.w3.org/1999/xlink"
   xmlns:sodipodi="http://sodipodi.sourceforge.net/DTD/sodipodi-0.dtd"
   xmlns:inkscape="http://www.inkscape.org/namespaces/inkscape"
   width="1024"
   height="768"
   id="svg2"
   sodipodi:version="0.32"
   inkscape:version="0.46"
   version="1.0"
   sodipodi:docname="museview.svg"
   inkscape:output_extension="org.inkscape.output.svg.inkscape">
  <sodipodi:namedview
     id="base"
     pagecolor="#ffffff"
     bordercolor="#666666"
     borderopacity="1.0"
     gridtolerance="10000"
     guidetolerance="10"
     objecttolerance="10"
     inkscape:pageopacity="0.0"
     inkscape:pageshadow="2"
     inkscape:zoom="0.7"
     inkscape:cx="784.13508"
     inkscape:cy="288.95224"
     inkscape:document-units="px"
     inkscape:current-layer="layer1"
     showgrid="false"
     inkscape:window-width="1680"
     inkscape:window-height="992"
     inkscape:window-x="1275"
     inkscape:window-y="-3"
     showguides="true"
     inkscape:guide-bbox="true" />
  <defs
     id="defs4">
    <linearGradient
       inkscape:collect="always"
       id="linearGradient3192">
      <stop
         style="stop-color:#0068a9;stop-opacity:1"
         offset="0"
         id="stop3194" />
      <stop
         style="stop-color:#00233f;stop-opacity:1"
         offset="1"
         id="stop3196" />
    </linearGradient>
    <linearGradient
       id="linearGradient3180"
       inkscape:collect="always">
      <stop
         id="stop3182"
         offset="0"
         style="stop-color:#0068a9;stop-opacity:1" />
      <stop
         id="stop3184"
         offset="1"
         style="stop-color:#00ffac;stop-opacity:1" />
    </linearGradient>
    <linearGradient
       id="linearGradient4929"
       inkscape:collect="always">
      <stop
         id="stop4931"
         offset="0"
         style="stop-color:#ffff69;stop-opacity:1" />
      <stop
         id="stop4933"
         offset="1"
         style="stop-color:#007d00;stop-opacity:1" />
    </linearGradient>
    <inkscape:path-effect
       prop_scale="1"
       count="5"
       strokepath="M 221.429,376.342 L 739.833,376.342 "
       id="path-effect3263"
       effect="curvestitching" />
    <inkscape:path-effect
       prop_scale="1"
       count="15"
       strokepath="M 221.429,376.342 L 739.833,376.342 "
       id="path-effect3261"
       effect="curvestitching" />
    <inkscape:path-effect
       prop_scale="1"
       count="15"
       strokepath="M 221.429,376.342 L 739.833,376.342 "
       id="path-effect3259"
       effect="curvestitching" />
    <inkscape:path-effect
       endpoint_edge_variation="0;930658003"
       startpoint_spacing_variation="0;-337489183"
       startpoint_edge_variation="0;565634805"
       prop_scale="1"
       count="5"
       strokepath="M 221.429,376.342 L 739.833,376.342 "
       id="path-effect3257"
       effect="curvestitching" />
    <inkscape:path-effect
       copytype="repeated"
       prop_scale="1"
       id="path-effect3253"
       effect="skeletal" />
    <inkscape:path-effect
       prop_scale="1"
       bendpath="M 221.429,376.342 L 739.833,376.342 "
       id="path-effect3251"
       effect="bend_path" />
    <inkscape:path-effect
       prop_scale="1"
       count="5"
       strokepath="M 221.429,376.342 L 739.833,376.342 "
       id="path-effect3249"
       effect="curvestitching" />
    <inkscape:path-effect
       strokepath-nodetypes="cc"
       prop_scale="1"
       count="5"
       strokepath="M 221.429,376.342 C 392.36465,382.37789 567.0965,387.27493 775.54729,382.05629"
       id="path-effect3247"
       effect="curvestitching" />
    <inkscape:perspective
       id="perspective10"
       inkscape:persp3d-origin="372.04724 : 350.78739 : 1"
       inkscape:vp_z="744.09448 : 526.18109 : 1"
       inkscape:vp_y="0 : 1000 : 0"
       inkscape:vp_x="0 : 526.18109 : 1"
       sodipodi:type="inkscape:persp3d" />
    <filter
       id="filter4909"
       inkscape:collect="always">
      <feGaussianBlur
         id="feGaussianBlur4911"
         stdDeviation="19.621036"
         inkscape:collect="always" />
    </filter>
    <linearGradient
       gradientUnits="userSpaceOnUse"
       y2="510.14285"
       x2="941.42865"
       y1="160.14284"
       x1="97.14286"
       id="linearGradient4935"
       xlink:href="#linearGradient4929"
       inkscape:collect="always" />
    <linearGradient
       gradientTransform="translate(0,2.1428571)"
       gradientUnits="userSpaceOnUse"
       y2="472.69055"
       x2="88.520882"
       y1="446.97626"
       x1="31.402807"
       id="linearGradient3186"
       xlink:href="#linearGradient3180"
       inkscape:collect="always" />
    <linearGradient
       gradientTransform="translate(-1.7475575,6.738011)"
       y2="472.69055"
       x2="88.520882"
       y1="446.97626"
       x1="31.402807"
       gradientUnits="userSpaceOnUse"
       id="linearGradient3190"
       xlink:href="#linearGradient3192"
       inkscape:collect="always" />
    <filter
       height="1.3386555"
       y="-0.16932777"
       width="1.3612889"
       x="-0.18064447"
       id="filter3406"
       inkscape:collect="always">
      <feGaussianBlur
         id="feGaussianBlur3408"
         stdDeviation="2.6647909"
         inkscape:collect="always" />
    </filter>
    <filter
       id="filter3454"
       inkscape:collect="always">
      <feGaussianBlur
         id="feGaussianBlur3456"
         stdDeviation="0.79223516"
         inkscape:collect="always" />
    </filter>
    <marker
       id="marker3462"
       orient="auto"
       markerHeight="42.365081"
       markerWidth="37.151346">
      <g
         transform="translate(-57.30235,-464.98814)"
         id="g3458">
        <path
           sodipodi:nodetypes="cssssc"
           id="path3188"
           d="M 45.3953,449.02372 C 55.395299,466.16658 62.538159,459.02372 70.395299,469.02372 C 78.252439,479.02372 71.823869,491.16658 68.252439,484.02372 C 64.681019,476.88087 60.395299,474.73801 51.823872,471.16659 C 42.569582,467.31064 37.538157,463.30944 38.966729,456.88087 C 40.3953,450.4523 44.681014,446.88087 45.3953,449.02372 z"
           style="fill:url(#linearGradient3467);fill-opacity:1;fill-rule:evenodd;stroke:none;stroke-width:1px;stroke-linecap:butt;stroke-linejoin:miter;stroke-opacity:1;filter:url(#filter3406)" />
        <path
           sodipodi:nodetypes="cssssc"
           id="path3178"
           d="M 47.142857,444.42857 C 57.142857,461.57143 64.285714,454.42857 72.142857,464.42857 C 80,474.42857 73.571429,486.57143 70,479.42857 C 66.428571,472.28572 62.142857,470.14286 53.571429,466.57144 C 44.317139,462.71549 39.285714,458.71429 40.714286,452.28572 C 42.142857,445.85715 46.428571,442.28572 47.142857,444.42857 z"
           style="fill:url(#linearGradient3469);fill-opacity:1;fill-rule:evenodd;stroke:none;stroke-width:1px;stroke-linecap:butt;stroke-linejoin:miter;stroke-opacity:1;filter:url(#filter3454)" />
      </g>
    </marker>
    <linearGradient
       y2="472.69055"
       x2="88.520882"
       y1="446.97626"
       x1="31.402807"
       gradientTransform="translate(-1.7475575,6.738011)"
       gradientUnits="userSpaceOnUse"
       id="linearGradient3467"
       xlink:href="#linearGradient3192"
       inkscape:collect="always" />
    <linearGradient
       y2="472.69055"
       x2="88.520882"
       y1="446.97626"
       x1="31.402807"
       gradientTransform="translate(0,2.1428571)"
       gradientUnits="userSpaceOnUse"
       id="linearGradient3469"
       xlink:href="#linearGradient3180"
       inkscape:collect="always" />
  </defs>
  <metadata
     id="metadata7">
    <rdf:RDF>
      <cc:Work
         rdf:about="">
        <dc:format>image/svg+xml</dc:format>
        <dc:type
           rdf:resource="http://purl.org/dc/dcmitype/StillImage" />
      </cc:Work>
    </rdf:RDF>
  </metadata>
  <g
     id="layer1"
     inkscape:groupmode="layer"
     inkscape:label="Layer 1">
    <rect
       y="0.85713851"
       x="3.2697405e-06"
       height="767.14282"
       width="1024.2858"
       id="background"
       style="fill:url(#linearGradient4935);fill-opacity:1;stroke:#008d82;stroke-width:0;stroke-linecap:round;stroke-linejoin:bevel;stroke-miterlimit:4;stroke-dasharray:none;stroke-opacity:0.29613730999999999;"
       inkscape:export-filename="/home/alessandro/Development/kde-devel/git/muse/images/background.png"
       inkscape:export-xdpi="90"
       inkscape:export-ydpi="90"
       inkscape:label="#background" />
    <path
       sodipodi:nodetypes="cssssssccsssssccssssscscsssssscsssssssssccsssssssssssssssssssssssssssccsccssc"
       id="path4863"
       d="M 380.09243,49.355617 C 377.44701,49.540337 375.03419,50.210187 373.49868,51.011867 C 370.42767,52.615237 369.28446,54.068137 368.43618,55.074367 C 365.04307,59.099297 365.68319,59.504147 365.31118,60.449367 C 364.93917,61.394597 364.70496,62.138657 364.43618,62.980617 C 362.28593,69.716357 359.1662,82.346747 354.62368,101.32437 C 345.53865,139.27962 331.75528,199.8352 317.37368,263.79312 C 288.61048,391.70896 257.52993,533.13687 257.52993,533.13687 L 257.15493,537.16812 C 257.15493,537.16812 257.77687,564.43032 268.31118,593.44937 C 278.84549,622.46842 301.88922,656.53292 344.59243,661.76187 C 385.20419,666.73474 418.09653,648.34948 435.77993,621.82437 C 453.46333,595.29926 457.85776,561.27436 446.34243,532.04312 C 434.82064,502.79551 406.84584,478.14469 378.46743,485.48062 C 344.24536,494.32716 343.58706,481.82127 317.15939,562.75741 L 343.15493,544.92258 C 357.08909,492.45883 365.44031,519.35161 380.09243,518.63687 C 394.74455,517.92213 408.38654,526.33538 415.43618,544.23062 C 422.49227,562.14223 419.75724,585.9834 408.15493,603.38687 C 396.55262,620.79034 378.01192,632.39168 348.62368,628.79312 C 321.3269,625.45067 307.92419,605.22944 299.52993,582.10562 C 292.10971,561.66501 290.71146,542.44517 290.46743,538.04312 C 291.24803,534.49054 321.38013,397.23513 349.74868,271.07437 C 356.30279,241.9269 362.61568,214.05513 368.52993,188.16812 C 374.71403,218.6043 383.79936,249.45896 394.74868,278.38687 C 407.35856,311.70196 422.30523,342.1939 438.31118,366.07437 C 454.31713,389.95484 465.53577,421.23601 488.08797,424.19937 C 534.9742,430.36023 526.63987,418.39977 537.00761,411.98508 C 547.37535,405.57039 547.6166,392.14568 556.31118,381.16812 C 573.70034,359.213 590.49639,329.38758 608.71743,296.73062 C 634.10432,251.23055 662.40514,200.6305 693.93618,160.54312 C 693.74307,160.98803 693.59894,161.2511 693.40493,161.69937 C 668.10064,220.16769 634.53195,309.79578 627.18618,414.10562 C 620.05947,515.30484 612.32512,591.56496 616.46743,646.16812 C 618.53859,673.4697 623.39819,695.87989 635.18618,713.41812 C 646.97417,730.95635 666.66907,741.55922 689.65493,743.26187 C 731.36942,746.35184 765.13267,736.96309 786.49868,715.82437 C 807.86469,694.68565 813.8075,662.57022 803.90493,630.38687 C 799.3612,615.61974 794.69402,604.32429 788.68618,595.16812 C 782.67834,586.01195 774.6541,578.93196 765.49868,575.35562 C 747.18784,568.20294 729.34643,577.49918 689.97636,605.98062 L 684.66386,624.56991 C 742.43665,581.62277 748.85863,604.51722 753.40493,606.29312 C 755.67808,607.18107 757.6583,608.39126 760.93618,613.38687 C 764.21406,618.38248 768.12723,627.07811 772.15493,640.16812 C 779.39522,663.69905 775.32909,680.15505 763.12368,692.23062 C 750.91827,704.30619 727.55207,712.79245 692.12368,710.16812 C 676.53811,709.01363 669.26426,704.61204 662.74868,694.91812 C 656.2331,685.2242 651.44985,668.15225 649.59243,643.66812 C 645.87759,594.69985 653.15216,518.10729 660.31118,416.44937 C 667.25113,317.90207 699.24206,231.76967 723.87368,174.85562 C 736.18949,146.3986 746.4683,125.92322 751.59243,112.29312 C 752.87346,108.8856 753.91798,106.03726 754.52993,102.13687 C 754.83591,100.18668 755.16337,97.939507 754.46743,94.355617 C 753.77149,90.771727 750.83088,84.802927 745.40493,81.855617 C 739.97898,78.908317 735.08412,79.536717 732.18618,80.230617 C 729.28824,80.924527 727.4674,81.865987 725.77993,82.793117 C 722.40499,84.647387 719.61257,86.731837 716.21743,89.449367 C 658.02641,136.02662 615.98966,215.56488 579.71743,280.57437 C 561.58132,313.07912 544.93866,342.03537 530.27993,360.54312 C 522.95057,369.79699 516.10211,376.30371 510.96743,379.48062 C 505.83275,382.65753 503.5621,382.79563 500.81118,382.07437 C 494.75627,380.48684 479.9166,368.51068 465.90493,347.60562 C 451.89326,326.70056 437.70677,298.06482 425.81118,266.63687 C 402.02,203.78097 387.8552,128.86749 395.81118,82.355617 C 397.00061,75.402014 397.6666,71.742587 397.90493,67.793117 C 397.96451,66.805757 398.32681,66.404217 397.59243,62.668117 C 397.40883,61.734097 397.20347,60.533337 396.21743,58.511867 C 395.23139,56.490407 393.21598,52.954917 388.15493,50.636867 C 385.62441,49.477847 382.73785,49.170907 380.09243,49.355617 z M 364.74868,65.793117 C 364.74958,65.778137 364.65673,66.316267 364.65493,66.324367 C 364.66252,65.887457 364.74626,65.833307 364.74868,65.793117 z M 396.21743,72.605617 C 396.17562,72.711847 396.24246,72.909797 395.93618,73.543117 C 395.95129,73.494897 396.04691,73.119077 396.06118,73.074367 C 396.19767,72.646807 396.2931,72.413347 396.21743,72.605617 z"
       style="fill:#000000;fill-opacity:0.93562233;fill-rule:evenodd;stroke:none;stroke-width:33.20000076;stroke-linecap:butt;stroke-linejoin:bevel;stroke-miterlimit:4;stroke-dasharray:none;stroke-opacity:1;filter:url(#filter4909)" />
    <path
       sodipodi:nodetypes="cssssssccsssssccssssscscsssssscsssssssssccsssssssssssssssssssssssssssccsccssc"
       id="path2439"
       d="M364.9241 29.218749C362.27868 29.403466 359.86586 30.073316 358.33035 30.874999C355.25934 32.478365 354.11613 33.931266 353.26785 34.937499C349.87474 38.962429 350.51486 39.367274 350.14285 40.312499C349.77084 41.257724 349.53663 42.001782 349.26785 42.843749C348.498253687 45.2545366084 347.604467295 48.4204276357 346.56570739 52.3621720954C345.82730086 55.1641765148 345.01563729 58.3582299662 344.123251189 61.9517859355C343.394079742 64.8880916445 342.611013294 68.0911281939 341.769979083 71.5649617954C341.04266541 74.5690805872 340.272000377 77.7757157391 339.45535 81.187497C338.833368203 83.7859998613 338.189364899 86.4904323246 337.524655763 89.2946339798C336.903907259 91.9133793658 336.265101127 94.6191338209 335.609308888 97.4068801416C334.989905078 100.039940723 334.355347904 102.746146527 333.706540236 105.521270046C333.088355671 108.16541038 332.457234084 110.872116259 331.813956439 113.637730969C331.196888077 116.290665283 330.568634035 118.997805932 329.929883655 121.755925198C329.313751296 124.416380026 328.687852784 127.124267106 328.052806797 129.876689601C327.43769178 132.54272709 326.813994466 135.250548367 326.182277089 137.997520877C325.567900377 140.669088892 324.945937861 143.377688234 324.316906735 146.120897243C323.70330273 148.796828473 323.082972581 151.505692568 322.456396354 154.245241708C321.843527785 156.924857518 321.224683441 159.63383046 320.600312565 162.37005704C319.988053874 165.053203496 319.370480991 167.762556457 318.748017517 170.496132485C318.136400455 173.182076017 317.520061754 175.891405798 316.899403257 178.622240277C316.288249215 181.311256119 315.672906666 184.021123078 315.053759273 186.750044726C314.443196943 189.441127296 313.828934554 192.150739797 313.211340029 194.877159495C312.601160846 197.57084358 311.987729063 200.280933683 311.371399509 203.005768386C310.761655312 205.701488779 310.149074938 208.411640367 309.534001963 211.13461442C308.924658009 213.832225668 308.312867671 216.542421626 307.698965016 219.263638097C307.089920164 221.963321619 306.478796291 224.673851934 305.865919594 227.393701687C305.257211249 230.095052956 304.646773842 232.805597324 304.034926959 235.523838389C303.426357562 238.227518629 302.81639375 240.938813328 302.20535 243.65625C301.486468949 246.853261233 300.766140356 250.058712837 300.044885629 253.270185884C299.32635084 256.469548083 298.60689689 259.674886396 297.887039311 262.883809157C297.168629552 266.086277943 296.449817786 269.292316773 295.731116441 272.499548384C295.012941297 275.704431809 294.294876412 278.910506268 293.57743309 282.115399717C292.859392446 285.322961465 292.141974401 288.529340235 291.425691535 291.732158052C290.7078028 294.942156422 289.991054341 298.148577854 289.275962195 301.349028343C288.558200354 304.561427259 287.842107215 307.767810566 287.128204618 310.965757345C286.410457258 314.180926848 285.694924097 317.387568707 284.98213545 320.583222679C284.264306925 323.801471998 283.549261862 327.008577497 282.837541905 330.202026377C282.119732994 333.422796061 281.405306327 336.629674454 280.694817568 339.820083711C279.976832891 343.044152963 279.262869652 346.251403733 278.55350129 349.439175722C277.83542047 352.666099908 277.122048089 355.873063897 276.413978974 359.057308157C275.695613725 362.287854965 274.982707096 365.495016498 274.27588024 368.675911085C273.557135871 371.910437407 272.844678022 375.117803565 272.1391598 378.294979655C271.419811531 381.534436899 270.707677627 384.742508862 270.003450358 387.915983943C269.283577458 391.159963285 268.571966416 394.367791409 267.869356677 397.536037869C267.148740104 400.785481739 266.437592126 403.99328911 265.736710512 407.155758968C265.014958109 410.412400564 264.304092594 413.620964333 263.604985146 416.777408691C262.882000694 420.041656844 262.171591184 423.250164665 261.474720138 426.398462165C260.750085306 429.672189844 260.040089191 432.880813995 259.345815126 436.019308799C258.618871416 439.305488093 257.909164199 442.514782765 257.217937049 445.641423606C256.488027165 448.943038789 255.778723601 452.152490271 255.091490617 455.26298505C254.357283815 458.586088675 253.648267847 461.796245472 252.966228216 464.885172111C252.225666024 468.239144779 251.516908204 471.450190365 250.842240441 474.507705089C250.091482668 477.910050764 249.382938019 481.122281849 248.719756027 484.129786991C247.949946005 487.620846189 247.241258349 490.836054395 246.598619104 493.752558624C245.782112073 497.458130959 245.07222727 500.681504216 244.479068306 503.375805585C243.108931014 509.599369595 242.3616 513.0 242.3616 513.0C242.3616 513.0 241.9866 517.03125 241.9866 517.03125C241.9866 517.03125 242.068677938 520.629065179 242.678236408 526.601915857C242.9557788 529.321456879 243.342675109 532.533375197 243.880968426 536.122248416C244.319352595 539.045014047 244.858149556 542.217791845 245.520068528 545.578237373C246.10882972 548.56727379 246.795001103 551.704786903 247.594563726 554.946903366C248.336265125 557.954400523 249.175540215 561.051909351 250.125145601 564.204408685C251.027722911 567.200784241 252.029973161 570.246838495 253.14285 573.3125C254.14157618 576.063708665 255.252741588 578.860267674 256.482439216 581.673305003C257.663486932 584.375051541 258.953873533 587.091998344 260.358997082 589.798566352C261.724691325 592.429185096 263.198773574 595.049999354 264.7862001 597.637523535C266.341402404 600.172521851 268.00539399 602.675567927 269.782835381 605.124577586C271.533573657 607.536794928 273.394378552 609.896587271 275.369703681 612.182850895C277.319792227 614.439905411 279.381493496 616.625297999 281.559092578 618.718723506C283.708000352 620.784566746 285.969771997 622.760850394 288.348525447 624.628061368C290.68811298 626.464528917 293.140861845 628.195485963 295.710689903 629.802367486C298.224847726 631.374439103 300.851067106 632.827752671 303.593016763 634.144923743C306.25522021 635.423786527 309.026520081 636.574310728 311.910274214 637.580585031C314.687699365 638.549756266 317.569438898 639.385118976 320.558492748 640.072457778C323.414826613 640.729277359 326.369156428 641.250926314 329.4241 641.625C332.369380986 641.985646755 335.274061178 642.223439902 338.135283785 642.344184281C341.096246812 642.469137734 344.010669636 642.468739691 346.875386171 642.349423462C349.831879338 642.226284712 352.735430329 641.976486181 355.582558909 641.60709951C358.512907993 641.226915803 361.383488049 640.72005075 364.190504658 640.094214393C367.069743363 639.452275811 369.882105679 638.685165111 372.623496706 637.801202899C375.427060122 636.897193185 378.156396609 635.870971674 380.807126294 634.731438019C383.50890027 633.569960713 386.129010881 632.290765211 388.662820324 630.903275264C391.239047059 629.492558011 393.726058987 627.969890154 396.118981467 626.345176686C398.546541119 624.696945749 400.87726775 622.943693634 403.106071961 621.095761709C405.363256459 619.224299303 407.51590637 617.255730542 409.558735394 615.20079689C411.624574758 613.122716553 413.578105264 610.956314746 415.413859958 608.712700013C417.268535314 606.445960908 419.002994576 604.100409046 420.6116 601.6875C422.062949274 599.510475268 423.424781932 597.282930756 424.695649032 595.011663075C425.972751734 592.729251254 427.157994029 590.402686149 428.249905545 588.038864904C429.346363033 585.665202325 430.348710992 583.253972743 431.255460608 580.812159806C432.165314771 578.361986542 432.978914846 575.88102014 433.694756673 573.376316229C434.412926811 570.863465645 435.032701741 568.326722885 435.552562576 565.773212647C436.073716948 563.213348671 436.494459388 560.63663367 436.813259643 558.050245659C437.132820098 555.457690251 437.349951614 552.855415646 437.463112968 550.250651328C437.576440208 547.642068642 437.585492238 545.030988938 437.488721048 542.424673544C437.391877258 539.816402841 437.189051406 537.212903598 436.878691994 534.621453496C436.568597929 532.032219 436.1511541 529.45501305 435.624812984 526.897094678C435.099722703 524.345255125 434.466252103 521.812611585 433.722864668 519.306371459C432.98273691 516.811120936 432.133654151 514.342042781 431.1741 511.90625C429.963235046 508.832517017 428.570652543 505.809553918 427.014981341 502.869152763C425.462451937 499.934689973 423.747491909 497.082455983 421.88861747 494.344050622C420.014706174 491.583493679 417.994542737 488.938614384 415.84709636 486.441785641C413.660980428 483.899995936 411.342956258 481.511636748 408.913036363 479.310861501C406.418134047 477.051231761 403.805271213 474.989353088 401.096109254 473.162192888C398.300942154 471.277027602 395.403264647 469.641720103 392.426867304 468.296871454C389.364163574 466.913026323 386.218108549 465.836729097 383.014622951 465.112216163C379.773475051 464.379185375 376.473538254 464.006259123 373.141658297 464.039252426C369.882988788 464.071520776 366.593764452 464.492066351 363.2991 465.34375C360.105543694 466.169296894 357.204272935 466.808899042 354.547070496 467.355844456C351.271873422 468.029994831 348.367474021 468.563377646 345.743582092 469.130681365C342.512034028 469.829364574 339.705960707 470.57949913 337.156693369 471.707415973C334.504566428 472.880842785 332.130387126 474.463152961 329.844235144 476.821793772C328.042659193 478.680493716 326.295748631 481.021298709 324.510561062 484.024028526C323.168603453 486.281234546 321.805016275 488.912481003 320.380319388 491.994151878C319.24616456 494.447369778 318.073283078 497.18603217 316.841757744 500.248673748C315.812266597 502.808882865 314.741794593 505.595491575 313.618706741 508.631010614C312.647131944 511.25701515 311.63618024 514.06930042 310.578318877 517.082440372C309.641246629 519.751532871 308.667365645 522.578230591 307.65144008 525.57266355C306.735513402 528.272350546 305.785411791 531.108377123 304.797298326 534.088166745C303.894585932 536.810417904 302.960148347 539.652655577 301.99106 542.62054C301.99106 542.62054 304.759781881 540.720995537 308.490053293 538.161758203C310.474696457 536.800148733 312.731519276 535.251804235 314.988360951 533.703446802C317.245413274 532.154944848 319.502484455 530.606429956 321.487337477 529.244676508C325.217744898 526.685345862 327.9866 524.78571 327.9866 524.78571C328.916938682 521.282875525 329.822389734 518.133796583 330.706490179 515.306637158C331.83194674 511.707673774 332.922804226 508.630387242 333.986359209 506.009102561C335.535290709 502.191537435 337.026313088 499.341160836 338.481965406 497.25510321C341.213964755 493.339945722 343.821374539 492.117070001 346.453201064 492.245300328C349.386114849 492.388200511 352.349351605 494.209029433 355.549131316 495.851642546C358.431865909 497.331499933 361.506590754 498.666708337 364.9241 498.5C367.556447696 498.371592357 370.156191996 498.537803699 372.690963451 499.000686753C375.245499179 499.467179027 377.734044892 500.234987505 380.123468042 501.306213308C382.4529828 502.35058099 384.688283151 503.683341976 386.798666715 505.306443278C388.79373344 506.840854109 390.677161955 508.634742259 392.42301285 510.689752693C394.038895828 512.591780172 395.536922369 514.717499134 396.896525595 517.06821384C398.141662693 519.221019917 399.270703268 521.562531371 400.26785 524.09375C401.198986888 526.457404772 401.959621095 528.924316973 402.551875595 531.466066755C403.128928922 533.942578406 403.546135096 536.490135282 403.805457782 539.082450175C404.059219801 541.619177952 404.161796742 544.198764828 404.11502864 546.796578626C404.069008103 549.352867671 403.878378775 551.926805597 403.54489386 554.494922647C403.214555491 557.038808622 402.7440446 559.576983047 402.135065229 562.086634248C401.528534818 564.586193096 400.784647367 567.057457668 399.905086443 569.477890391C399.024720592 571.900538165 398.008432832 574.27226101 396.857911356 576.570459423C395.702322744 578.878779581 394.411315426 581.112926247 392.9866 583.25C391.392622394 585.640967095 389.667686133 587.922421876 387.80165454 590.069995324C385.925672676 592.229020312 383.907086738 594.252732364 381.735597027 596.116370548C379.583270582 597.963562238 377.28072719 599.653492877 374.817937434 601.162051307C372.425089723 602.627767403 369.880968244 603.922266774 367.176374036 605.02343471C364.604284904 606.070653576 361.887061814 606.943020574 359.01679269 607.621514721C356.334949119 608.255467527 353.519494082 608.720166449 350.56397367 609.000096C347.831172686 609.258930873 344.978620779 609.359794491 342.001215892 609.290421291C339.259769469 609.226545897 336.412475051 609.018346945 333.45535 608.65625C330.350772192 608.276099078 327.425920728 607.67761318 324.667723035 606.881354157C321.693711462 606.022792223 318.913453439 604.934297025 316.310561459 603.641644471C313.58064405 602.285908338 311.04582661 600.705602196 308.687203429 598.930462833C306.288510077 597.125165987 304.072048495 595.118359724 302.017932952 592.941322302C299.978487288 590.77983263 298.09907709 588.450534597 296.360239649 585.984041096C294.655060677 583.565291214 293.085065031 581.014605812 291.631898479 578.360854261C290.210406244 575.764945885 288.900705616 573.070415409 287.68561658 570.304285277C286.491700441 567.586354896 285.389127411 564.799298363 284.3616 561.96875C283.489350979 559.565950344 282.700313966 557.180019374 281.986582187 554.833042978C281.236212358 552.365589056 280.569077497 549.941191674 279.975989617 547.58551551C279.337811426 545.050745873 278.785367254 542.595543912 278.307210166 540.251884188C277.772332815 537.630213325 277.330412131 535.14811712 276.965425256 532.850351998C276.523842328 530.070378474 276.194872081 527.560221529 275.950138916 525.399142334C275.546051987 521.830913839 275.371615489 519.214354775 275.2991 517.90625C275.41229887 517.391071877 276.142742473 514.064202103 277.395542841 508.367212793C277.983354062 505.694197743 278.686160352 502.499408916 279.494160516 498.828457316C280.130536047 495.93724036 280.832163677 492.750658095 281.594255065 489.290993626C282.25103928 486.309391884 282.952731776 483.124963639 283.696267541 479.751972277C284.364331932 476.721350851 285.066176237 473.538503134 285.79957724 470.213775115C286.474917119 467.152255687 287.177014979 463.9704312 287.904134923 460.676379854C288.584619639 457.593598787 289.28701969 454.412524979 290.009912218 451.139779861C290.694323775 448.041249311 291.39710417 444.86054737 292.117045888 441.603293341C292.804537741 438.492853213 293.507678762 435.312606327 294.225417465 432.067445884C294.915486663 428.947389438 295.61904973 425.76732792 296.335172161 422.531610156C297.027444849 419.403654744 297.731454277 416.223688505 298.446356234 412.995640075C299.140616171 409.860798049 299.845148697 406.680610387 300.559180638 403.458675152C301.255001266 400.318915054 301.959842923 397.139509761 302.6729901 393.923788992C303.370410354 390.778984004 304.075773845 387.599447598 304.788411362 384.388294025C305.487245436 381.239338935 306.193074477 378.059979634 306.905267411 374.853152893C307.605392201 371.70066599 308.311667038 368.521634634 309.02349239 365.318848819C309.724903865 362.162919185 310.431704637 358.983925056 311.143321103 355.784535755C311.845859567 352.625960664 312.553091643 349.44750744 313.264465401 346.25174455C313.968236854 343.090134122 314.67606194 339.91158202 315.387406236 336.718575242C316.092353707 333.554281857 316.800757378 330.375792596 317.512097117 327.185527965C318.218240111 324.018570046 318.92727643 320.840008179 319.638697256 317.652210209C320.345887172 314.483370475 321.055433317 311.305404166 321.766835897 308.12063713C322.475251788 304.949240734 323.18550856 301.771100594 323.897112687 298.588513387C324.606635086 295.415236528 325.317496968 292.237538582 326.029209127 289.057696128C326.739969644 285.882105494 327.451578166 282.704376085 328.163547445 279.526775357C328.875559585 276.348983341 329.587932526 273.171320022 330.300178934 269.996053271C331.013404329 266.816422096 331.726502842 263.639194082 332.438985126 260.46664646C333.153557823 257.28479063 333.86751067 254.107642698 334.58035 250.9375C335.274301582 247.851355136 335.96554893 244.7795117 336.65390519 241.72281134C337.349076006 238.635850401 338.041298208 235.564333846 338.730379334 232.509128565C339.426902673 229.420926468 340.120216721 226.349389878 340.810122716 223.295414078C341.507962881 220.206316445 342.202316153 217.135185836 342.892976834 214.082948777C343.592318356 210.992348469 344.28787388 207.921119639 344.979429849 204.870224191C345.680163509 201.778840084 346.376790753 198.708332632 347.069089413 195.659702545C347.771506275 192.566515593 348.4694671 189.495850173 349.162739833 186.448751517C349.866822248 183.354141733 350.566069236 180.283839362 351.260237716 177.238939293C351.966026939 174.143066009 352.666566198 171.073452643 353.3616 168.03125C353.880468042 170.584954038 354.419760188 173.141604094 354.978863776 175.699814924C355.535498286 178.246728348 356.111769645 180.795188791 356.707073271 183.343829278C357.300383477 185.883935446 357.912598703 188.424220455 358.54312042 190.963331018C359.172104655 193.496250139 359.819306212 196.028000533 360.484130932 198.55723879C361.14788434 201.08240138 361.82920416 203.605059921 362.527499101 206.123877487C363.225367836 208.641157688 363.940190976 211.154601599 364.671378311 213.662874741C365.402699449 216.17160688 366.150390772 218.675166356 366.913861746 221.172217954C367.678451905 223.672930023 368.458868013 226.167115121 369.254516934 228.653432152C370.051659278 231.144415968 370.864091673 233.627502152 371.691217638 236.101342045C372.521129334 238.583513746 373.365833742 241.056376767 374.224728333 243.518568776C375.087066821 245.9906334 375.963709518 248.451941266 376.854046617 250.901113586C377.749178677 253.363476063 378.658153042 255.813571929 379.58035 258.25C380.549166971 260.809598075 381.531777657 263.352531526 382.527602687 265.87708229C383.532463546 268.4245401 384.550779644 270.953280111 385.581955695 273.461537067C386.623979171 275.996179555 387.679134582 278.50990578 388.746807659 281.00089419C389.827066273 283.52124592 390.920139405 286.018320617 392.025390803 288.490231549C393.145756198 290.995945154 394.278635205 293.475802073 395.423365116 295.927837112C396.585257083 298.416633627 397.759357959 300.876767784 398.944974779 303.306184665C400.150894926 305.77720457 401.368728808 308.216446144 402.597747245 310.621747083C403.849783278 313.07209555 405.113426728 315.487220168 406.387906675 317.864834854C407.689744229 320.293486709 409.0028885 322.683000994 410.326517847 325.030941225C411.681072435 327.433738669 413.04660777 329.792996696 414.422243266 332.106104024C415.83444991 334.480705105 417.257300877 336.806669044 418.689843469 339.081170714C420.164258745 341.422155218 421.648940491 343.708625037 423.14285 345.9375C424.952998171 348.638194998 426.701917382 351.433543815 428.412925373 354.271882056C430.106558232 357.08139723 431.763045933 359.933033153 433.405003037 362.776683445C435.061429583 365.645392876 436.703068307 368.505975311 438.353136916 371.306988C440.052266039 374.191281543 441.76033378 377.012410377 443.502690985 379.71420542C445.338568905 382.561018835 447.212516039 385.275344221 449.154188366 387.791473748C451.245881167 390.502008347 453.416168834 392.9825373 455.702126108 395.150915253C458.183819325 397.504961375 460.801838712 399.491111807 463.603621364 401.00426165C466.495761681 402.566210669 469.583709143 403.624158549 472.91964 404.0625C476.160769177 404.488385022 479.138020551 404.82767523 481.875813268 405.088188666C485.215154072 405.405942139 488.198248133 405.606498059 490.869406399 405.70404303C494.377894706 405.832165498 497.348229673 405.782572915 499.880820215 405.587412227C503.697224853 405.293321199 506.519599488 404.668674131 508.691534165 403.823474907C512.275240024 402.42889088 514.088109615 400.433849039 515.673609994 398.33250623C517.363877359 396.092310505 518.795734455 393.731301318 521.83928 391.84821C524.6001717 390.140001231 526.642955863 387.934685547 528.318495286 385.410852899C529.962042074 382.935210138 531.252234525 380.153097772 532.520218696 377.233069883C533.703970117 374.507020738 534.868365865 371.660771027 536.282844426 368.831465545C537.609001715 366.17882436 539.154986078 363.541077441 541.14285 361.03125C542.824876018 358.907565873 544.50135267 356.710244167 546.174106392 354.443845105C547.785983611 352.259927073 549.394403947 350.011868058 551.001001598 347.703748302C552.554373985 345.472094664 554.106042455 343.184293891 555.657484109 340.844033986C557.161923684 338.574673996 558.666149979 336.255985302 560.171509871 333.891330767C561.635635968 331.591447241 563.100834411 329.248081517 564.568344404 326.864327616C565.999446192 324.539713483 567.432746255 322.176690336 568.869393835 319.778127581C570.273710756 317.433542652 571.681226222 315.054999699 573.093013618 312.645178733C574.476142207 310.284276318 575.863371049 307.893352868 577.255709479 305.474928474C578.621908978 303.101906136 579.993028018 300.702405734 581.370020146 298.278808076C582.724060714 295.895606689 584.08378022 293.489104653 585.450085321 291.061565698C586.795328716 288.671447456 588.146956237 286.260935869 589.505833258 283.832191586C590.84625802 281.436427342 592.193736735 279.022922206 593.5491 276.59375C594.847951935 274.265861316 596.15443132 271.924623017 597.468580514 269.572125972C598.769651728 267.243040202 600.078240856 264.902918659 601.394389003 262.553790408C602.699282771 260.224749544 604.011606838 257.886855348 605.331401262 255.542085276C606.641564495 253.214426151 607.959089453 250.879991138 609.284015328 248.54071472C610.601354451 246.214833398 611.926009975 243.884165956 613.258020421 241.550613836C614.584148527 239.227367 615.917566738 236.901260907 617.258313066 234.574171918C618.594243964 232.255440911 619.937450434 229.935734056 621.287970079 227.616907568C622.635854565 225.30260562 623.991023715 222.989180608 625.353514915 220.678477902C626.714477669 218.370367349 628.082746053 216.064972998 629.458357327 213.764134017C630.833855558 211.46348411 632.216695473 209.167388824 633.60691432 206.877686874C634.999001659 204.584907502 636.398487779 202.298538664 637.80541008 200.020426497C639.215771448 197.736745735 640.633605395 195.461362059 642.058949597 193.196135178C643.488992678 190.923440608 644.926595613 188.66096991 646.37179645 186.410601248C647.823731667 184.149746265 649.283335761 181.901106368 650.750647316 179.666586096C652.226413583 177.419190423 653.709976387 175.18607756 655.201374983 172.96918516C656.703003653 170.737086247 658.212575981 168.521431085 659.730132034 166.324197475C661.25981828 164.109400844 662.797616393 161.913321438 664.343567409 159.737984864C665.90354594 157.542909914 667.471825998 155.368955932 669.048449749 153.218204167C670.641658744 151.044827637 672.243387896 148.895144041 673.853680714 146.771301004C675.482955372 144.62242249 677.120996779 142.499997332 678.76785 140.40625C678.57474 140.85116 678.43061 141.11423 678.2366 141.5625C677.025377553 144.361161478 675.795219864 147.231215646 674.549909172 150.170855356C673.356907617 152.987015825 672.149999322 155.867038747 670.932509646 158.809335266C669.760499918 161.6417208 668.578684589 164.531814306 667.390030105 167.478198419C666.241040241 170.326263629 665.085660043 173.226925364 663.926568791 176.178903467C662.802262293 179.042291623 661.674464138 181.953962316 660.545619555 184.91274722C659.447615797 187.790696047 658.348622008 190.713219865 657.250888425 193.67924351C656.180638583 196.571007403 655.111586634 199.504120197 654.045817996 202.477585483C653.004230447 205.383586193 651.96577891 208.328129062 650.932410051 211.310283974C649.920725616 214.229860738 648.913912785 217.185487589 647.91379823 220.176291744C646.933179773 223.10879357 645.959000987 226.075114586 644.992983788 229.074432061C644.044387674 232.019660057 643.103661429 234.996705133 642.172435481 238.004788271C641.256989202 240.961899291 640.35072398 243.949005402 639.455188756 246.965366523C638.573600935 249.934749697 637.702411488 252.932483719 636.843098103 255.95786255C635.996191964 258.939559276 635.160821418 261.948108272 634.338401065 264.982833642C633.527307725 267.975762416 632.728810316 270.994151486 631.944265791 274.037352502C631.16999665 277.040695924 630.409317297 280.068205611 629.663532067 283.119258352C628.926705514 286.133660599 628.204417404 289.171043679 627.497925626 292.230806575C626.7996178 295.255125391 626.116742459 298.301308532 625.450514284 301.368775625C624.79154587 304.402817112 624.148863798 307.457681224 623.523643469 310.532806355C622.90480139 313.576560279 622.303066597 316.640163939 621.719578886 319.723072743C621.141931092 322.775125829 620.582166951 325.846099556 620.041392378 328.935465518C619.505610462 331.996309156 618.988469093 335.075206987 618.491043836 338.171645107C617.998051796 341.240486751 617.524426002 344.326557427 617.071213516 347.42935685C616.621966914 350.505004892 616.192777927 353.597090188 615.784666369 356.70512547C615.379953342 359.787278729 614.995968163 362.885117434 614.633705383 365.998166391C614.274316235 369.086521244 613.936306228 372.189845997 613.620646434 375.307676672C613.307428875 378.401384928 613.016217022 381.509375513 612.74795958 384.631195135C612.481659744 387.730233297 612.237980522 390.842899398 612.01785 393.96875C611.789225924 397.215209883 611.559976515 400.436004456 611.330513928 403.631242074C611.097360423 406.877875264 610.863986829 410.098122718 610.630825511 413.292098106C610.393758932 416.539569973 610.156911801 419.759882333 609.920738577 422.953154662C609.680494403 426.201469853 609.440947568 429.421804795 609.20257644 432.614285251C608.959988526 435.863240689 608.718618283 439.083347433 608.478969917 442.274738039C608.234962153 445.524182612 607.99273948 448.743856804 607.752834123 451.933900539C607.508399215 455.184174128 607.266369953 458.403687816 607.027309281 461.592589604C606.783533409 464.844388862 606.542844385 468.064356741 606.305839126 471.252650169C606.064020834 474.505690521 605.826037442 477.725756889 605.592522977 480.913015959C605.354048904 484.167969136 605.120235604 487.38870663 604.891758364 490.575405974C604.658277181 493.831898079 604.430368351 497.05284475 604.208752508 500.238435444C603.982102428 503.496390173 603.762034487 506.717364384 603.549319551 509.901560738C603.331506735 513.162068864 603.12140359 516.38401519 602.919837746 519.567617301C602.713230449 522.830845921 602.515592854 526.053788249 602.327816261 529.236678611C602.135125102 532.50287289 601.95281787 535.726891253 601.781857695 538.908986908C601.606243816 542.177702341 601.442603157 545.402181646 601.291979658 548.582699277C601.136992562 551.855357229 600.995787771 555.081469451 600.86950261 558.261334949C600.73940704 561.537146671 600.625145024 564.763878754 600.527959971 567.941858095C600.42766128 571.221654333 600.345551313 574.44952388 600.28299686 577.625826068C600.218330341 580.909371824 600.174562161 584.13780923 600.153202281 587.311535256C600.131078597 590.598749976 600.132994455 593.827270529 600.160627661 596.997538011C600.189313272 600.288544493 600.245712412 603.516776298 600.331701977 606.682726865C600.421169687 609.976735217 600.542670007 613.203322076 600.698316923 616.36304321C600.860639965 619.65829353 601.06010171 622.880818994 601.2991 626.03125C601.52578946 629.019421086 601.78588278 631.948996215 602.084808065 634.820000864C602.395413842 637.803189904 602.74794559 640.723141758 603.148492907 643.579885003C603.565124789 646.551344969 604.03370594 649.454417931 604.561089423 652.289136055C605.109886159 655.238951713 605.722357249 658.114749045 606.40622487 660.916564294C607.11701122 663.828665954 607.904925412 666.660846665 608.778637882 669.413147119C609.683563056 672.263771382 610.680526159 675.028706123 611.779160453 677.707996554C612.909294635 680.464107225 614.147013793 683.129592017 615.502803783 685.704500143C616.881963706 688.323792304 618.383299947 690.849358322 620.01785 693.28125C621.522800983 695.520323538 623.156627947 697.646356541 624.909725639 699.655260365C626.675638401 701.678849192 628.562571992 703.583590161 630.560708971 705.365304309C632.557496636 707.145815288 634.665337551 708.803465547 636.874434152 710.334084578C639.06633934 711.852792177 641.357930382 713.246437996 643.739636675 714.51094814C646.088116225 715.757817337 648.524214201 716.879128821 651.038754993 717.870976832C653.507220612 718.844650723 656.05128069 719.69356212 658.662254817 720.414016054C661.215934096 721.118660448 663.833622939 721.700423228 666.507199935 722.155847372C669.116291233 722.600286853 671.778607194 722.924408682 674.4866 723.125C677.403615042 723.341075732 680.281749004 723.496131282 683.119481602 723.590415841C686.044926084 723.687614656 688.92743306 723.720227662 691.765336873 723.688527881C694.693980405 723.655814524 697.575122872 723.554609928 700.406933679 723.38521415C703.331498587 723.210269924 706.203447257 722.962594241 709.020763257 722.642517618C711.933006991 722.31165621 714.786874402 721.903432653 717.580138286 721.418212011C720.467683397 720.916613684 723.290464827 720.332732776 726.046022151 719.666972579C728.894366386 718.978794474 731.670883065 718.203130056 734.372854753 717.340424745C737.161965195 716.449897134 739.871644951 715.466623953 742.498905104 714.391095119C745.204423487 713.283529495 747.82253907 712.078130322 750.349987807 710.775432615C752.94319637 709.438840977 755.440958722 707.99982186 757.839749355 706.458953136C760.286756611 704.887112353 762.630773421 703.209286379 764.868057382 701.426088638C767.132819653 699.620989672 769.28821119 697.707914691 771.33035 695.6875C773.156637037 693.880640866 774.870239179 691.993583756 776.47089277 690.033141278C778.09039588 688.049612357 779.594274581 685.990959498 780.982255794 683.864238834C782.377163059 681.726905792 783.65501329 679.520823932 784.815529298 677.253155542C785.974912543 674.987700592 787.01719051 672.660779282 787.942086823 670.27953295C788.861126463 667.913365262 789.664266322 665.493558374 790.351235241 663.027118818C791.0309816 660.586610579 791.596986942 658.100445078 792.048988571 655.575410171C792.494791574 653.085002898 792.829696255 650.556784999 793.053450578 647.997268879C793.273520811 645.479894914 793.38607071 642.932244887 793.390860486 640.360514796C793.395562355 637.835983647 793.296423245 635.288248206 793.093216326 632.723169545C792.89394286 630.207742806 792.594591449 627.67563777 792.194948182 625.132381702C791.803353566 622.640345761 791.315466089 620.137603418 790.731084508 617.629354668C790.158845186 615.173222224 789.494080003 612.711809819 788.7366 610.25C787.749592244 607.042223165 786.756759337 603.998262129 785.745624869 601.104459783C784.636558005 597.930381168 783.50547274 594.936956769 782.335905045 592.106164494C781.0539623 589.003382467 779.725786881 586.09598618 778.329698457 583.360243596C776.814930082 580.391938521 775.220211507 577.625711796 773.51785 575.03125C772.081160723 572.841682491 770.52916179 570.770843211 768.873958757 568.838253088C767.168421265 566.846893209 765.353307394 565.002318603 763.441861006 563.325885789C761.471322984 561.597626697 759.398404214 560.048066169 757.237615209 558.700603275C755.022339065 557.319162331 752.714705285 556.150139841 750.33035 555.21875C747.306717236 554.03764211 744.295884543 553.30505125 741.198803559 553.033297766C738.185330976 552.768880504 735.090203942 552.940755052 731.822181182 553.560270653C728.966072075 554.10170022 725.977905277 554.985037858 722.796774727 556.217859497C720.092505151 557.265877489 717.248787439 558.566455313 714.228204847 560.12424713C711.626985721 561.465762466 708.894602778 562.998028897 706.007160047 564.724018775C703.470633309 566.240246068 700.814445934 567.905970994 698.022398374 569.72320857C695.525321868 571.348460705 692.91957521 573.09490289 690.193569829 574.963976595C687.719962795 576.659994473 685.147335382 578.456986479 682.467029102 580.356029615C680.006970394 582.099023556 677.456202229 583.92798611 674.80803 585.84375C674.80803 585.84375 673.479905 590.4910725 672.15178 595.138395C670.823655 599.7857175 669.49553 604.43304 669.49553 604.43304C672.243570458 602.390201524 674.875426773 600.496333409 677.396423536 598.742076869C680.233638891 596.767776995 682.930439361 594.970309363 685.494415026 593.336333241C688.44846089 591.453772314 691.226193137 589.788232446 693.839219738 588.319310844C696.952761867 586.56902277 699.832457796 585.097889877 702.497945155 583.871396014C705.844667275 582.331439679 708.853695743 581.17714974 711.563900884 580.340205631C715.268946188 579.196042854 718.41552488 578.644963127 721.102946789 578.512414173C725.221988542 578.309254903 728.262377469 579.089309685 730.5816936 580.224076695C734.803895026 582.289864461 736.63643097 585.531183423 738.2366 586.15625C739.664810822 586.714145343 740.977385845 587.399246774 742.568828627 589.070504007C743.510336936 590.059231085 744.54944856 591.393111273 745.76785 593.25C747.179114985 595.400819882 748.708141395 598.237499177 750.313368405 601.815453383C751.481209868 604.418501584 752.689383656 607.413900244 753.921885845 610.822988339C754.9300978 613.611692005 755.954589284 616.677219018 756.9866 620.03125C757.949891983 623.16194728 758.713046183 626.167409447 759.283521475 629.053982267C759.920189791 632.275488058 760.316871517 635.348914077 760.483934829 638.283081233C760.669963017 641.550332379 760.571281648 644.644913012 760.202205855 647.579001983C759.799701827 650.778839659 759.075604442 653.787796725 758.048481457 656.621670027C756.978869566 659.572771914 755.580643064 662.334005081 753.874770615 664.923208985C752.193704841 667.47476087 750.213875594 669.859250388 747.95535 672.09375C745.847856186 674.178824493 743.407608738 676.156885419 740.629967213 677.989212938C738.151455485 679.624213423 735.404306023 681.143178994 732.38522194 682.518600455C729.672512684 683.754444977 726.740259929 684.874400701 723.586072078 685.858512153C720.728369079 686.750119876 717.688492641 687.530221043 714.464664171 688.183975082C711.518647673 688.78139216 708.419017074 689.273299664 705.164415104 689.648372536C702.167069156 689.993798234 699.038282633 690.240129427 695.776995346 690.378519904C692.752618866 690.506857234 689.614293004 690.542366588 686.361172242 690.477992953C683.326052022 690.417933172 680.191006832 690.270928724 676.95535 690.03125C673.777164614 689.795828181 670.944603295 689.425383055 668.393616659 688.902572122C665.275397554 688.263509958 662.577895867 687.396789012 660.184131952 686.270734979C657.484097656 685.000607842 655.170496828 683.400541548 653.075459039 681.425082216C651.095817444 679.558432609 649.311324765 677.356604902 647.58035 674.78125C646.085346125 672.556974039 644.681545244 669.944262599 643.383364865 666.942703147C642.295564355 664.427568922 641.281925029 661.639405987 640.350929561 658.577971624C639.540665926 655.913545188 638.793001399 653.042127597 638.113528006 649.963558844C637.50650491 647.21324904 636.953906187 644.297608768 636.459719032 641.216523942C636.010039522 638.412928793 635.608724006 635.472347777 635.258776498 632.394694937C634.936089097 629.556784178 634.65707851 626.602324996 634.4241 623.53125C634.192812707 620.482467653 634.004124246 617.326603807 633.855354512 614.064276042C633.715553025 610.99861032 633.611002509 607.838929661 633.539478919 604.585746555C633.471813314 601.508040255 633.43370778 598.346646511 633.423279106 595.101999272C633.413359631 592.015778301 633.428480245 588.854235383 633.467020338 585.617743959C633.503846997 582.52514204 633.562057036 579.364107668 633.640236528 576.134966656C633.71523198 573.037339896 633.808603404 569.877041127 633.91910269 566.654357955C634.025448759 563.552802283 634.147659353 560.393463627 634.284621874 557.176598364C634.416787913 554.072388972 634.562690735 550.91461163 634.721330583 547.703496711C634.874850089 544.596025403 635.040297678 541.438604056 635.216767309 538.23144145C635.387863212 535.121941099 635.569320106 531.965682735 635.760312228 528.762856642C635.945867435 525.651204442 636.140422724 522.495598035 636.343220861 519.296211911C636.540548529 516.183129073 636.745680343 513.028596574 636.957918711 509.83277516C637.164808918 506.717484749 637.378452038 503.562960071 637.598201898 500.369350026C637.812653435 497.252740153 638.032920785 494.098906941 638.258403397 490.907988778C638.478731926 487.790008637 638.704040021 484.636619543 638.933767376 481.447950608C639.158501864 478.328583824 639.387465605 475.17545407 639.620134039 471.98868222C639.847973278 468.868054038 640.079365019 465.715165799 640.313816691 462.530131006C640.543652219 459.407806705 640.77642837 456.254589261 641.011681099 453.070585606C641.242481815 449.946837266 641.475666261 446.793456908 641.710796243 443.610545508C641.941603563 440.486149169 642.174285543 437.333297611 642.408427712 434.152086341C642.638465544 431.026639324 642.869912823 427.873818129 643.102376495 424.693713329C643.330961048 421.566674919 643.560528356 418.413255869 643.790704717 415.233542291C644.017120299 412.105781044 644.244125195 408.952577485 644.471363722 405.774013576C644.695079171 402.644729727 644.919021061 399.4908658 645.14285 396.3125C645.353477577 393.321588101 645.587180196 390.342111856 645.843051792 387.374541025C646.100637092 384.387094837 646.380689318 381.41171407 646.682284075 378.448877985C646.985960455 375.465592261 647.311477768 372.495024984 647.657892349 369.537665407C648.006853472 366.558565868 648.377020229 363.592868926 648.767427991 360.641074704C649.160724846 357.667436633 649.574563388 354.707907809 650.007957414 351.76299954C650.444835764 348.794415315 650.901585299 345.840687677 651.377195836 342.902340366C651.856661523 339.940175737 652.355295213 336.993641782 652.87206196 334.063275079C653.393390651 331.107039519 653.933173963 328.167257915 654.4903493 325.244481184C655.05255794 322.295301232 655.63247425 319.363434771 656.229006571 316.449447781C656.831285944 313.507387146 657.450503033 310.583552148 658.085534323 307.678525283C658.727029348 304.743929285 659.384662147 301.82852625 660.057274548 298.932916644C660.737151295 296.006033885 661.432332957 293.099374409 662.141623432 290.213558348C662.859057362 287.294609861 663.590925934 284.396986149 664.335991372 281.521328948C665.090218193 278.610312443 665.857968415 275.721805976 666.637958039 272.856475247C667.428212355 269.953436664 668.231030335 267.07418782 669.045076618 264.219421049C669.870329044 261.32535562 670.707121038 258.456450941 671.554061329 255.613428333C672.413793517 252.727465681 673.283982869 249.868172831 674.163174117 247.036304282C675.056562271 244.1587076 675.959245389 241.309428048 676.869696559 238.489257268C677.795995599 235.619996869 678.730335477 232.780867433 679.67110815 229.972702664C680.629500025 227.111945356 681.594567905 224.283323418 682.564611697 221.487718278C683.554363665 218.635315414 684.549295788 215.817284568 685.547602234 213.034561993C686.568128882 210.189901861 687.592181735 207.382139269 688.617831674 204.612274387C689.668537032 201.774744967 690.720918459 198.976987467 691.772901974 196.220077163C692.852993906 193.389503744 693.932666379 190.601989512 695.009674685 187.858698258C696.118341516 185.034768299 697.224185252 182.257699388 698.324757362 179.528760992C699.461251846 176.710750787 700.592124959 173.944064307 701.7146805 171.230099425C702.878611311 168.416102938 704.03360011 165.658786109 705.176641441 162.959707147C706.36696532 160.148979266 707.54433286 157.401406988 708.70535 154.71875C709.866589229 152.035580322 711.009718873 149.423369985 712.132125524 146.881166426C713.316288523 144.199087352 714.477385377 141.594930728 715.612347124 139.067577951C716.817828345 136.383191168 717.993825815 133.78544897 719.136662234 131.273011015C720.360985346 128.581430834 721.547249907 125.987753335 722.690934599 123.490330544C723.929804476 120.785055316 725.118711978 118.192723459 726.25191034 115.711240338C727.498836572 112.980715392 728.678310608 110.384405239 729.782675996 107.919519178C731.026583007 105.143183474 732.175201581 102.533582184 733.217590815 100.086727458C734.437854629 97.2223384341 735.512541663 94.5809774468 736.4241 92.156247C737.078376064 90.4158827812 737.670956702 88.8213849053 738.175720649 87.1580876328C738.659251695 85.5647569761 739.062198682 83.9082932793 739.3616 81.999997C739.66758 80.049807 739.99504 77.802637 739.2991 74.218749C738.915449482 72.2430590884 737.849648026 69.542597745 736.061376242 67.0231013878C734.605732513 64.9722447428 732.671389087 63.041293208 730.2366 61.718749C727.95613786 60.4800330837 725.76948856 59.8729360591 723.785476139 59.6368593816C721.048887412 59.3112340137 718.697820344 59.6914840043 717.01785 60.093749C714.11991 60.787654 712.29907 61.729117 710.6116 62.656249C708.867688743 63.6143905135 707.279312255 64.6339935197 705.682946623 65.7706436494C704.18991295 66.8337189774 702.689890925 67.9991790408 701.0491 69.312499C698.498451139 71.3540891319 695.978839065 73.4590064087 693.489388815 75.6232515277C691.024313656 77.7663057546 688.588812563 79.9675317117 686.182036023 82.2230464256C683.798447893 84.4568300831 681.443033482 86.7438614323 679.114967597 89.0803686552C676.808963325 91.3947342716 674.529791706 93.7576425013 672.276650784 96.1654277427C670.043541499 98.5518064756 667.836002115 100.982267806 665.653251876 103.453243032C663.48890886 105.903380423 661.348938657 108.39335128 659.232580097 110.91967643C657.132531896 113.426531688 655.0557328 115.969183047 653.001439103 118.544231153C650.961140594 121.101736353 648.943041886 123.691198388 646.946414369 126.309286908C644.961325582 128.912245207 642.997460534 131.543500077 641.054103176 134.199778574C639.120503286 136.842720073 637.207205667 139.510434546 635.313505001 142.199698101C633.426720376 144.879140117 631.559389823 147.579974103 629.710815723 150.299011362C627.867649447 153.010094344 626.043130044 155.73927425 624.236566001 158.483390287C622.432735931 161.223353502 620.646806915 163.978207674 618.878090575 166.744806337C617.110023013 169.510390191 615.359155502 172.287709922 613.624800418 175.073622525C611.88885663 177.862087079 610.169455536 180.659160255 608.465907621 183.461690402C606.758612442 186.270385225 605.067240262 189.084561053 603.391097009 191.901045393C601.70902418 194.727493413 600.042288217 197.556266307 598.390187652 200.384157793C596.729744462 203.226329305 595.084084853 206.067610484 593.452496679 208.90474623C591.810452326 211.760064017 590.182660341 214.611183068 588.568394799 217.454785298C586.940673746 220.322090024 585.326705572 223.181752096 583.725746046 226.030369765C582.109035662 228.907013234 580.505591154 231.772393914 578.914646108 234.623008658C577.305169367 237.506828022 575.708484977 240.375535454 574.123799431 243.225503962C572.51712485 246.115018521 570.922784414 248.985270506 569.339951122 251.832479837C567.73140604 254.725939677 566.134744987 257.595602165 564.5491 260.4375C563.265841073 262.737442524 561.990059208 265.019619233 560.721928158 267.2815858C559.4323615 269.581787082 558.150706492 271.86108921 556.877145846 274.116921797C555.579340463 276.415698605 554.28994056 278.690103789 553.009139485 280.937417352C551.699883191 283.234658888 550.399612046 285.503591657 549.108532573 287.741310317C547.785107655 290.035090596 546.471340737 292.296073158 545.167454256 294.521128782C543.8261189 296.810090146 542.495239683 299.061031223 541.175058765 301.270545351C539.811101873 303.553324917 538.458564534 305.791884626 537.117713804 307.982467569C535.726164241 310.255878524 534.347201758 312.477616027 532.981124866 314.643480698C531.554579063 316.905216603 530.142084849 319.106023817 528.743982155 321.241120258C527.272941833 323.487602558 525.817833782 325.661339114 524.379053955 327.75675969C522.851413042 329.981596418 521.342179547 332.118144619 519.851827413 334.159736925C518.249736618 336.354396941 516.669464568 338.439328721 515.1116 340.40625C513.121793281 342.918531113 511.167430704 345.228336926 509.273181482 347.324008749C507.060481438 349.77199346 504.929805562 351.92779415 502.920473679 353.772828238C500.313864232 356.166302073 497.911460017 358.036798513 495.7991 359.34375C493.831599937 360.561074279 492.284613726 361.332222469 490.969989148 361.779811669C488.853774433 362.500317633 487.339676021 362.382388523 485.64285 361.9375C483.890916653 361.478162579 481.403539194 360.149107969 478.413568437 357.985695353C476.473760644 356.582134919 474.322409096 354.827389487 472.023098552 352.731114617C470.145923071 351.019699079 468.170129664 349.08064666 466.130318227 346.919211469C464.34215294 345.02442683 462.504790771 342.958744415 460.641540935 340.725703806C458.948593954 338.696765289 457.234275354 336.529663851 455.516069282 334.227054517C453.921603163 332.090272073 452.323789337 329.836796659 450.7366 327.46875C449.370191946 325.430103476 448.002121352 323.317938098 446.634674951 321.136833852C445.326591579 319.050414821 444.019079381 316.900912493 442.714140018 314.692335899C441.457684341 312.565816707 440.203613869 310.384531389 438.953715342 308.152058517C437.744048955 305.99144521 436.538290259 303.782886598 435.33805895 301.529626692C434.171603374 299.339775818 433.010368471 297.107704131 431.855841009 294.836389407C430.729780157 292.621077362 429.610100059 290.368433616 428.498180199 288.081221067C427.409970117 285.842779388 426.329192853 283.571227429 425.257141513 281.269155088C424.204798906 279.009404348 423.160864336 276.720245091 422.126560893 274.404126988C421.109012337 272.125528142 420.100785403 269.820836798 419.103044699 267.492385495C418.119040392 265.195991148 417.145235564 262.876486569 416.182747384 260.536109277C415.231498362 258.223061017 414.291303236 255.889624668 413.363240495 253.537960277C412.444196827 251.209149767 411.537050879 248.862463781 410.64285 246.5C409.536328405 243.576588437 408.450630171 240.627094449 407.387012332 237.655588546C406.332281148 234.708909931 405.299262932 231.74058569 404.289183472 228.754585153C403.285302692 225.786909175 402.30407999 222.80177319 401.346718726 219.803073898C400.39262411 216.814606581 399.462228373 213.81266836 398.556722599 210.801116185C397.652442117 207.793639116 396.772984283 204.776574095 395.919535352 201.753762434C395.065271657 198.72806498 394.237066548 195.696609909 393.436109682 192.663249548C392.632482177 189.619775022 391.856284925 186.574382478 391.108719521 183.530962906C390.356944544 180.470405704 389.634124778 177.411843756 388.941482231 174.359234154C388.243325133 171.282320859 387.575827687 168.211455068 386.940241321 165.15068914C386.297860408 162.057203007 385.688076494 158.974033831 385.112181573 155.905365328C384.528618556 152.795837209 383.979853009 149.701198489 383.467229227 146.625802239C382.946278305 143.500448777 382.462652869 140.394968018 382.017763792 137.313928632C381.564208 134.172868686 381.150912484 131.057211655 380.779372189 127.971798447C380.399199708 124.814700254 380.062745228 121.68926755 379.771610332 118.600686557C379.472606416 115.428624997 379.221405057 112.295434184 379.019741248 109.206732341C378.811675412 106.019976471 378.656342291 102.880579103 378.555647414 99.7947106959C378.451204 96.5939656264 378.40554255 93.4508091107 378.420789424 90.3721266951C378.436702323 87.1589589137 378.518961059 84.016021075 378.669982995 80.9511410552C378.828702508 77.7300443421 379.063373574 74.5951654386 379.376802357 71.5555912249C379.709150382 68.3325417067 380.130051058 65.216649726 380.64285 62.218749C381.140284958 59.3106621709 381.546169203 56.9787333846 381.867508683 54.9607905736C382.314532607 52.1535764937 382.597942678 49.9539985713 382.7366 47.656249C382.79618 46.668882 383.15848 46.267344 382.4241 42.531249C382.2405 41.597225 382.03514 40.396462 381.0491 38.374999C380.458703735 37.1646381583 379.499270698 35.4114884942 377.737992278 33.7018801325C376.557702336 32.5562159766 375.0173216 31.4301052439 372.9866 30.499999C370.45608 29.340974 367.56952 29.034032 364.9241 29.218749C364.9241 29.218749 364.9241 29.218749 364.9241 29.218749M349.58035 45.656249C349.58125 45.641262 349.4884 46.179394 349.4866 46.187499C349.49419 45.750586 349.57793 45.696432 349.58035 45.656249C349.58035 45.656249 349.58035 45.656249 349.58035 45.656249M381.0491 52.468749C381.00729 52.574972 381.07413 52.772924 380.76785 53.406249C380.78296 53.358023 380.87858 52.982205 380.89285 52.937499C381.02934 52.509935 381.12477 52.276479 381.0491 52.468749C381.0491 52.468749 381.0491 52.468749 381.0491 52.468749"
       style="fill:#006cd0;fill-opacity:1;fill-rule:evenodd;stroke:none;stroke-width:33.20000076000000178;stroke-linecap:butt;stroke-linejoin:bevel;stroke-miterlimit:4;stroke-dasharray:none;stroke-opacity:1;" />
  </g>
</svg>
